<svg fill="none" height="161" width="261" xmlns="http://www.w3.org/2000/svg"><path d="m259.819 1v159.664l-259.819-159.664z" fill="#f72f97"/><path d="m143.111 31.274a.907.907 0 0 1 -.416-.59.91.91 0 0 1 .115-.712l11.981-19.174a.91.91 0 0 1 .59-.416.91.91 0 0 1 .713.115l14.959 9.348a.91.91 0 0 1 .416.59.91.91 0 0 1 -.115.712l-2.819 4.512a.91.91 0 0 1 -.59.415.91.91 0 0 1 -.713-.115l-8.489-5.304-1.372 2.196 7.895 4.934a.91.91 0 0 1 .416.59.91.91 0 0 1 -.115.712l-2.801 4.482a.907.907 0 0 1 -.59.415.908.908 0 0 1 -.712-.114l-7.895-4.934-3.487 5.58a.91.91 0 0 1 -.59.416.908.908 0 0 1 -.712-.115zm18.891 11.805a.909.909 0 0 1 -.415-.59.906.906 0 0 1 .115-.712l11.981-19.174a.91.91 0 0 1 .59-.416.907.907 0 0 1 .712.115l8.786 5.49c2.85 1.78 4.674 3.815 5.473 6.102.812 2.269.512 4.53-.897 6.786-.804 1.286-1.802 2.245-2.994 2.876-1.18.61-2.462.924-3.847.939l-.578 9.048a.87.87 0 0 1 -.115.383.769.769 0 0 1 -.504.345.713.713 0 0 1 -.557-.1l-6.085-3.803c-.356-.222-.593-.48-.712-.775a1.802 1.802 0 0 1 -.063-.824l.99-7.264-1.217-.76-3.543 5.669a.907.907 0 0 1 -.59.416.908.908 0 0 1 -.712-.115zm16.353-6.62c.436.272.859.344 1.269.215.423-.148.771-.44 1.043-.876.272-.435.388-.885.348-1.35-.007-.472-.238-.85-.694-1.135l-2.166-1.354-1.966 3.146zm4.771 19.82a.909.909 0 0 1 -.415-.59.906.906 0 0 1 .115-.712l11.981-19.175a.91.91 0 0 1 .59-.415.907.907 0 0 1 .712.115l15.227 9.514a.91.91 0 0 1 .416.59.91.91 0 0 1 -.115.713l-2.615 4.185a.912.912 0 0 1 -.59.415.91.91 0 0 1 -.713-.115l-8.904-5.564-1.169 1.87 8.252 5.156a.905.905 0 0 1 .415.59.902.902 0 0 1 -.115.712l-2.411 3.86a.907.907 0 0 1 -.589.415.91.91 0 0 1 -.713-.115l-8.251-5.156-1.169 1.87 9.142 5.712a.91.91 0 0 1 .416.59.91.91 0 0 1 -.115.712l-2.615 4.185a.91.91 0 0 1 -.59.416.91.91 0 0 1 -.713-.115zm19.501 12.185a.91.91 0 0 1 -.416-.59.91.91 0 0 1 .115-.712l11.982-19.174a.907.907 0 0 1 .59-.416.908.908 0 0 1 .712.115l15.227 9.515a.909.909 0 0 1 .415.59.906.906 0 0 1 -.115.712l-2.615 4.185a.907.907 0 0 1 -.59.416.908.908 0 0 1 -.712-.115l-8.905-5.564-1.168 1.87 8.251 5.156a.907.907 0 0 1 .416.59.91.91 0 0 1 -.115.712l-2.411 3.858a.91.91 0 0 1 -.59.416.907.907 0 0 1 -.712-.115l-8.252-5.156-1.168 1.87 9.142 5.712a.909.909 0 0 1 .415.59.906.906 0 0 1 -.115.713l-2.615 4.185a.907.907 0 0 1 -.59.415.908.908 0 0 1 -.712-.115zm-129.265-40.659a.908.908 0 0 1 -.416-.59.908.908 0 0 1 .115-.712l11.982-19.175a.908.908 0 0 1 .59-.415.909.909 0 0 1 .712.115l8.548 5.341c1.88 1.175 3.354 2.536 4.423 4.084 1.069 1.549 1.655 3.208 1.759 4.979.104 1.77-.352 3.536-1.368 5.294a90.364 90.364 0 0 1 -1.35 2.293 84.249 84.249 0 0 1 -1.414 2.13c-1.825 2.656-4.035 4.123-6.63 4.4-2.574.29-5.326-.48-8.254-2.31zm12.165-.447c.692.433 1.37.581 2.033.445.695-.143 1.31-.598 1.844-1.365a39.6 39.6 0 0 0 1.45-2.19 37.102 37.102 0 0 0 1.313-2.233c.455-.816.57-1.57.341-2.263-.207-.68-.667-1.243-1.38-1.688l-1.78-1.113-5.75 9.202zm17.902 19.647c-2.968-1.854-4.906-4.015-5.814-6.48-.908-2.466-.605-5.042.908-7.728a92.87 92.87 0 0 1 1.584-2.601 97.236 97.236 0 0 1 1.68-2.623c1.123-1.665 2.483-2.851 4.081-3.559 1.618-.695 3.356-.901 5.216-.62 1.86.282 3.76 1.029 5.699 2.24 1.939 1.212 3.443 2.592 4.512 4.14 1.068 1.549 1.635 3.196 1.699 4.942.085 1.759-.375 3.507-1.379 5.246a92.204 92.204 0 0 1 -1.592 2.679 84.568 84.568 0 0 1 -1.673 2.545c-1.75 2.538-3.933 3.94-6.547 4.204-2.615.265-5.406-.53-8.374-2.385zm3.617-5.788c.673.42 1.321.55 1.944.39.643-.149 1.228-.622 1.755-1.421a95.36 95.36 0 0 0 1.635-2.486c.359-.574.852-1.408 1.48-2.5.488-.824.657-1.558.509-2.2-.149-.644-.55-1.17-1.203-1.578-.653-.407-1.301-.537-1.944-.389-.643.149-1.228.622-1.754 1.421a86.673 86.673 0 0 0 -1.57 2.445 92.146 92.146 0 0 0 -1.546 2.542c-.488.823-.667 1.55-.538 2.181.148.643.559 1.175 1.232 1.596zm11.895 15.069c-.376-.236-.625-.542-.746-.92-.089-.386-.061-.74.085-1.062l9.084-20.613.056-.09a.711.711 0 0 1 .456-.333.772.772 0 0 1 .605.089l5.52 3.45c.357.222.577.442.661.66.104.23.073.5-.093.809l-4.221 9 3.535-2.95c.557-.45 1.073-.526 1.547-.23l3.028 1.892c.475.297.632.794.471 1.492l-1.083 4.44 6.221-7.71c.206-.284.425-.436.657-.456.252-.007.557.1.913.323l5.52 3.45a.66.66 0 0 1 .316.486.662.662 0 0 1 -.071.575l-.055.089-14.545 17.2c-.226.273-.541.447-.946.524-.374.07-.749-.013-1.125-.248l-4.244-2.653c-.356-.222-.578-.484-.664-.786a2.136 2.136 0 0 1 -.052-.776l1.368-7.605-6.236 4.564c-.191.128-.44.22-.749.274-.29.067-.613-.01-.969-.233l-4.244-2.653zm22.749 14.214a.905.905 0 0 1 -.415-.59.906.906 0 0 1 .114-.712l11.982-19.175a.91.91 0 0 1 .59-.415.908.908 0 0 1 .712.115l4.69 2.93c.554.346.817.827.79 1.443l-.121 11.357 5.063-8.103a.91.91 0 0 1 .59-.416.907.907 0 0 1 .712.115l5.373 3.357a.909.909 0 0 1 .415.59.906.906 0 0 1 -.115.712l-11.981 19.174a.91.91 0 0 1 -.59.416.907.907 0 0 1 -.712-.115l-4.69-2.93c-.336-.21-.55-.44-.642-.69-.091-.25-.141-.501-.148-.753l-.287-10.704-4.655 7.45a.91.91 0 0 1 -.59.416.91.91 0 0 1 -.713-.115zm21.675 13.544a.91.91 0 0 1 -.416-.59.91.91 0 0 1 .115-.712l11.982-19.175a.907.907 0 0 1 .589-.415.91.91 0 0 1 .713.114l5.936 3.71a.91.91 0 0 1 .416.59.91.91 0 0 1 -.115.712l-8.68 13.891 8.221 5.138a.907.907 0 0 1 .416.59.91.91 0 0 1 -.115.712l-2.801 4.482a.907.907 0 0 1 -.589.415.91.91 0 0 1 -.713-.115zm26.473 16.954c-2.969-1.854-4.907-4.015-5.815-6.48-.908-2.466-.605-5.042.909-7.728.314-.547.842-1.414 1.584-2.601a97.236 97.236 0 0 1 1.68-2.623c1.123-1.665 2.483-2.851 4.081-3.559 1.617-.695 3.356-.901 5.216-.62 1.86.282 3.759 1.029 5.699 2.24 1.939 1.212 3.443 2.592 4.511 4.14 1.069 1.549 1.635 3.196 1.7 4.942.084 1.759-.376 3.507-1.38 5.246a92.57 92.57 0 0 1 -1.591 2.679 86.579 86.579 0 0 1 -1.673 2.545c-1.751 2.538-3.933 3.939-6.548 4.204-2.614.265-5.405-.53-8.373-2.385zm3.616-5.787c.673.42 1.321.55 1.944.389.643-.149 1.228-.622 1.755-1.421a96.05 96.05 0 0 0 1.636-2.486c.358-.574.852-1.407 1.48-2.5.487-.824.656-1.558.508-2.2-.148-.644-.549-1.17-1.202-1.578-.653-.407-1.301-.537-1.944-.389-.643.149-1.228.622-1.755 1.421a84.903 84.903 0 0 0 -1.569 2.445 95.345 95.345 0 0 0 -1.547 2.542c-.487.823-.666 1.55-.538 2.181.149.643.559 1.175 1.232 1.596zm7.45 12.29a.844.844 0 0 1 -.364-.475.838.838 0 0 1 .119-.586.792.792 0 0 1 .159-.19l18.453-14.8c.239-.208.53-.343.871-.405.342-.062.7.025 1.076.26l6.441 4.025c.376.234.611.519.705.853s.1.654.019.96l-5.214 23.074a.813.813 0 0 1 -.1.226.774.774 0 0 1 -.505.345.714.714 0 0 1 -.556-.1l-5.492-3.431c-.593-.371-.824-.86-.693-1.466l.511-2.404-6.381-3.988-1.937 1.514c-.487.384-1.027.39-1.621.019zm17.533-.848 1.758-6.578-5.112 4.482zm6.357 15.776a.91.91 0 0 1 -.415-.59.906.906 0 0 1 .115-.712l11.981-19.174a.907.907 0 0 1 .59-.416.909.909 0 0 1 .712.115l8.549 5.341c1.879 1.175 3.354 2.537 4.422 4.085 1.069 1.548 1.655 3.208 1.759 4.978.104 1.771-.352 3.536-1.368 5.295a92.627 92.627 0 0 1 -1.35 2.293 83.957 83.957 0 0 1 -1.414 2.129c-1.825 2.657-4.035 4.124-6.629 4.401-2.575.29-5.326-.481-8.255-2.311zm12.165-.446c.693.432 1.371.581 2.033.445.695-.144 1.31-.599 1.844-1.366a39.38 39.38 0 0 0 1.45-2.189 37.125 37.125 0 0 0 1.314-2.233c.455-.817.568-1.571.341-2.263-.208-.681-.668-1.243-1.381-1.688l-1.78-1.113-5.75 9.201z" fill="#f6fb0f"/></svg>