<svg fill="none" height="100" width="100" xmlns="http://www.w3.org/2000/svg"><path d="m50 0c-27.613 0-50 22.387-50 50 0 27.612 22.387 50 50 50 27.612 0 50-22.388 50-50 0-27.613-22.388-50-50-50zm-8.333 66.667h-8.334v-25h8.334zm-4.167-28.713c-2.53 0-4.583-2.066-4.583-4.62 0-2.55 2.05-4.622 4.583-4.622s4.583 2.071 4.583 4.621c0 2.555-2.054 4.621-4.583 4.621zm33.333 28.713h-8.325v-11.921c0-7.838-8.341-7.175-8.341 0v11.92h-8.334v-25h8.334v4.555c3.633-6.733 16.666-7.233 16.666 6.45z" fill="#161616"/></svg>