<svg width="260" height="161" viewBox="0 0 260 161" fill="none" xmlns="http://www.w3.org/2000/svg">
<path d="M259.819 0.909493L259.819 160.573L0 0.908997L259.819 0.909493Z" fill="#F72F97"/>
<path d="M170.541 28.25C169.057 28.25 167.782 28.025 166.716 27.575C165.649 27.125 164.841 26.5333 164.291 25.8C163.741 25.0667 163.449 24.275 163.416 23.425C163.416 23.275 163.466 23.15 163.566 23.05C163.666 22.95 163.791 22.9 163.941 22.9L166.166 22.9C166.366 22.9 166.516 22.9417 166.616 23.025C166.732 23.0917 166.841 23.2083 166.941 23.375C167.107 23.9417 167.491 24.4167 168.091 24.8C168.691 25.1833 169.507 25.375 170.541 25.375C171.724 25.375 172.616 25.1833 173.216 24.8C173.816 24.4 174.116 23.85 174.116 23.15C174.116 22.6833 173.957 22.3 173.641 22C173.341 21.7 172.882 21.4417 172.266 21.225C171.666 21.0083 170.766 20.7417 169.566 20.425C167.599 19.9583 166.157 19.3417 165.241 18.575C164.341 17.7917 163.891 16.6833 163.891 15.25C163.891 14.2833 164.149 13.425 164.666 12.675C165.199 11.925 165.957 11.3333 166.941 10.9C167.941 10.4667 169.099 10.25 170.416 10.25C171.782 10.25 172.966 10.4917 173.966 10.975C174.966 11.4583 175.724 12.0667 176.241 12.8C176.774 13.5167 177.057 14.2333 177.091 14.95C177.091 15.1 177.041 15.225 176.941 15.325C176.841 15.425 176.716 15.475 176.566 15.475H174.241C173.891 15.475 173.649 15.3167 173.516 15C173.416 14.4667 173.082 14.025 172.516 13.675C171.949 13.3083 171.249 13.125 170.416 13.125C169.482 13.125 168.749 13.3 168.216 13.65C167.682 14 167.416 14.5083 167.416 15.175C167.416 15.6417 167.549 16.025 167.816 16.325C168.082 16.625 168.499 16.8917 169.066 17.125C169.649 17.3583 170.482 17.6167 171.566 17.9C173.032 18.2333 174.199 18.6083 175.066 19.025C175.949 19.4417 176.599 19.9667 177.016 20.6C177.432 21.2333 177.641 22.0417 177.641 23.025C177.641 24.0917 177.341 25.025 176.741 25.825C176.157 26.6083 175.324 27.2083 174.241 27.625C173.174 28.0417 171.941 28.25 170.541 28.25ZM180.456 12.85C180.289 12.85 180.147 12.7917 180.031 12.675C179.914 12.5583 179.856 12.4167 179.856 12.25V10.45C179.856 10.2833 179.914 10.1417 180.031 10.025C180.147 9.90833 180.289 9.85 180.456 9.85H182.731C182.897 9.85 183.039 9.90833 183.156 10.025C183.289 10.1417 183.356 10.2833 183.356 10.45V12.25C183.356 12.4167 183.297 12.5583 183.181 12.675C183.064 12.7917 182.914 12.85 182.731 12.85H180.456ZM180.556 28C180.389 28 180.247 27.9417 180.131 27.825C180.014 27.7083 179.956 27.5667 179.956 27.4V15.6C179.956 15.4333 180.014 15.2917 180.131 15.175C180.247 15.0583 180.389 15 180.556 15H182.631C182.814 15 182.956 15.0583 183.056 15.175C183.172 15.275 183.231 15.4167 183.231 15.6V27.4C183.231 27.5667 183.172 27.7083 183.056 27.825C182.956 27.9417 182.814 28 182.631 28H180.556ZM192.172 33.5C190.689 33.5 189.489 33.25 188.572 32.75C187.656 32.2667 187.006 31.7083 186.622 31.075C186.239 30.4417 186.047 29.9 186.047 29.45C186.047 29.3 186.106 29.1667 186.222 29.05C186.356 28.9333 186.497 28.875 186.647 28.875H188.822C188.972 28.875 189.097 28.9083 189.197 28.975C189.314 29.0583 189.406 29.2 189.472 29.4C189.639 29.85 189.906 30.225 190.272 30.525C190.656 30.8417 191.247 31 192.047 31C193.047 31 193.781 30.775 194.247 30.325C194.731 29.875 194.972 29.1 194.972 28V26.3C194.056 27.3833 192.772 27.925 191.122 27.925C189.389 27.925 188.081 27.3917 187.197 26.325C186.331 25.2583 185.864 23.825 185.797 22.025L185.772 21.35L185.797 20.675C185.864 18.9083 186.339 17.4833 187.222 16.4C188.106 15.3 189.406 14.75 191.122 14.75C192.006 14.75 192.781 14.9167 193.447 15.25C194.114 15.5833 194.672 16.0417 195.122 16.625V15.625C195.122 15.4417 195.181 15.2917 195.297 15.175C195.414 15.0583 195.556 15 195.722 15H197.747C197.914 15 198.056 15.0667 198.172 15.2C198.289 15.3167 198.347 15.4583 198.347 15.625L198.372 27.675C198.372 29.525 197.856 30.9583 196.822 31.975C195.789 32.9917 194.239 33.5 192.172 33.5ZM192.047 25.275C192.997 25.275 193.706 24.975 194.172 24.375C194.656 23.775 194.922 23.0417 194.972 22.175C194.989 22.0417 194.997 21.7667 194.997 21.35C194.997 20.95 194.989 20.6833 194.972 20.55C194.922 19.6667 194.656 18.925 194.172 18.325C193.706 17.725 192.997 17.425 192.047 17.425C190.247 17.425 189.297 18.5333 189.197 20.75L189.172 21.35C189.172 22.5333 189.381 23.4833 189.797 24.2C190.231 24.9167 190.981 25.275 192.047 25.275ZM202.053 28C201.886 28 201.744 27.9417 201.628 27.825C201.511 27.7083 201.453 27.5667 201.453 27.4V15.6C201.453 15.4333 201.511 15.2917 201.628 15.175C201.744 15.0583 201.886 15 202.053 15H204.103C204.269 15 204.411 15.0583 204.528 15.175C204.644 15.2917 204.703 15.4333 204.703 15.6V16.625C205.686 15.375 207.078 14.75 208.878 14.75C210.411 14.75 211.628 15.2583 212.528 16.275C213.428 17.275 213.878 18.6417 213.878 20.375V27.4C213.878 27.5667 213.819 27.7083 213.703 27.825C213.603 27.9417 213.461 28 213.278 28H211.078C210.911 28 210.769 27.9417 210.653 27.825C210.536 27.7083 210.478 27.5667 210.478 27.4V20.525C210.478 19.5417 210.236 18.7833 209.753 18.25C209.286 17.7 208.603 17.425 207.703 17.425C206.819 17.425 206.119 17.7 205.603 18.25C205.103 18.8 204.853 19.5583 204.853 20.525V27.4C204.853 27.5667 204.794 27.7083 204.678 27.825C204.578 27.9417 204.436 28 204.253 28H202.053ZM227.091 28.25C225.558 28.25 224.35 27.75 223.466 26.75C222.583 25.7333 222.141 24.3583 222.141 22.625V15.6C222.141 15.4333 222.2 15.2917 222.316 15.175C222.433 15.0583 222.575 15 222.741 15H224.941C225.125 15 225.266 15.0583 225.366 15.175C225.483 15.275 225.541 15.4167 225.541 15.6V22.475C225.541 24.5417 226.45 25.575 228.266 25.575C229.133 25.575 229.816 25.3 230.316 24.75C230.833 24.2 231.091 23.4417 231.091 22.475V15.6C231.091 15.4333 231.15 15.2917 231.266 15.175C231.383 15.0583 231.525 15 231.691 15H233.891C234.075 15 234.216 15.0583 234.316 15.175C234.433 15.275 234.491 15.4167 234.491 15.6V27.4C234.491 27.5667 234.433 27.7083 234.316 27.825C234.216 27.9417 234.075 28 233.891 28H231.866C231.7 28 231.558 27.9417 231.441 27.825C231.325 27.7083 231.266 27.5667 231.266 27.4V26.375C230.333 27.625 228.941 28.25 227.091 28.25ZM238.169 32.75C238.002 32.75 237.86 32.6917 237.744 32.575C237.627 32.475 237.569 32.3333 237.569 32.15V15.6C237.569 15.4167 237.627 15.275 237.744 15.175C237.86 15.0583 238.002 15 238.169 15H240.144C240.327 15 240.469 15.0583 240.569 15.175C240.685 15.275 240.744 15.4167 240.744 15.6V16.6C241.677 15.3667 243.01 14.75 244.744 14.75C246.427 14.75 247.719 15.2833 248.619 16.35C249.519 17.4 250.002 18.825 250.069 20.625C250.085 20.825 250.094 21.1167 250.094 21.5C250.094 21.9 250.085 22.2 250.069 22.4C250.002 24.15 249.519 25.5667 248.619 26.65C247.719 27.7167 246.427 28.25 244.744 28.25C243.06 28.25 241.777 27.6583 240.894 26.475V32.15C240.894 32.3333 240.835 32.475 240.719 32.575C240.619 32.6917 240.477 32.75 240.294 32.75H238.169ZM243.819 25.575C245.619 25.575 246.577 24.4667 246.694 22.25C246.71 22.0833 246.719 21.8333 246.719 21.5C246.719 21.1667 246.71 20.9167 246.694 20.75C246.577 18.5333 245.619 17.425 243.819 17.425C242.852 17.425 242.135 17.7333 241.669 18.35C241.202 18.9667 240.944 19.725 240.894 20.625L240.869 21.575L240.894 22.55C240.927 23.3833 241.185 24.1 241.669 24.7C242.169 25.2833 242.885 25.575 243.819 25.575ZM175.638 58C175.472 58 175.33 57.9417 175.213 57.825C175.097 57.7083 175.038 57.5667 175.038 57.4V47.65H173.013C172.847 47.65 172.705 47.5917 172.588 47.475C172.472 47.3417 172.413 47.1917 172.413 47.025V45.6C172.413 45.4333 172.472 45.2917 172.588 45.175C172.705 45.0583 172.847 45 173.013 45H175.038V43.975C175.038 40.9917 176.672 39.5 179.938 39.5L181.638 39.5C181.822 39.5 181.963 39.5583 182.063 39.675C182.18 39.775 182.238 39.9167 182.238 40.1V41.525C182.238 41.7083 182.18 41.8583 182.063 41.975C181.947 42.0917 181.805 42.15 181.638 42.15L180.038 42.15C179.388 42.15 178.93 42.3083 178.663 42.625C178.413 42.9417 178.288 43.4333 178.288 44.1V45L181.388 45C181.572 45 181.713 45.0583 181.813 45.175C181.93 45.275 181.988 45.4167 181.988 45.6V47.025C181.988 47.2083 181.93 47.3583 181.813 47.475C181.697 47.5917 181.555 47.65 181.388 47.65L178.288 47.65V57.4C178.288 57.5667 178.23 57.7083 178.113 57.825C177.997 57.9417 177.855 58 177.688 58H175.638ZM189.295 58.25C187.345 58.25 185.836 57.75 184.77 56.75C183.703 55.7333 183.128 54.35 183.045 52.6L183.02 51.5L183.045 50.4C183.128 48.6667 183.711 47.2917 184.795 46.275C185.878 45.2583 187.378 44.75 189.295 44.75C191.211 44.75 192.711 45.2583 193.795 46.275C194.878 47.2917 195.461 48.6667 195.545 50.4C195.561 50.6 195.57 50.9667 195.57 51.5C195.57 52.0333 195.561 52.4 195.545 52.6C195.461 54.35 194.886 55.7333 193.82 56.75C192.753 57.75 191.245 58.25 189.295 58.25ZM189.295 55.775C190.178 55.775 190.861 55.5 191.345 54.95C191.828 54.3833 192.095 53.5583 192.145 52.475C192.161 52.3083 192.17 51.9833 192.17 51.5C192.17 51.0167 192.161 50.6917 192.145 50.525C192.095 49.4417 191.828 48.625 191.345 48.075C190.861 47.5083 190.178 47.225 189.295 47.225C188.411 47.225 187.728 47.5083 187.245 48.075C186.761 48.625 186.495 49.4417 186.445 50.525L186.42 51.5L186.445 52.475C186.495 53.5583 186.761 54.3833 187.245 54.95C187.728 55.5 188.411 55.775 189.295 55.775ZM198.689 58C198.523 58 198.381 57.9417 198.264 57.825C198.148 57.7083 198.089 57.5667 198.089 57.4V45.625C198.089 45.4583 198.148 45.3167 198.264 45.2C198.381 45.0667 198.523 45 198.689 45H200.714C200.898 45 201.048 45.0583 201.164 45.175C201.281 45.2917 201.339 45.4417 201.339 45.625V46.65C201.739 46.1167 202.239 45.7083 202.839 45.425C203.456 45.1417 204.156 45 204.939 45H205.964C206.148 45 206.289 45.0583 206.389 45.175C206.506 45.275 206.564 45.4167 206.564 45.6V47.4C206.564 47.5667 206.506 47.7083 206.389 47.825C206.289 47.9417 206.148 48 205.964 48H204.014C203.231 48 202.614 48.225 202.164 48.675C201.714 49.125 201.489 49.7417 201.489 50.525V57.4C201.489 57.5667 201.431 57.7083 201.314 57.825C201.198 57.9417 201.048 58 200.864 58H198.689ZM218.94 58.25C216.99 58.25 215.482 57.75 214.415 56.75C213.348 55.7333 212.773 54.35 212.69 52.6L212.665 51.5L212.69 50.4C212.773 48.6667 213.357 47.2917 214.44 46.275C215.523 45.2583 217.023 44.75 218.94 44.75C220.857 44.75 222.357 45.2583 223.44 46.275C224.523 47.2917 225.107 48.6667 225.19 50.4C225.207 50.6 225.215 50.9667 225.215 51.5C225.215 52.0333 225.207 52.4 225.19 52.6C225.107 54.35 224.532 55.7333 223.465 56.75C222.398 57.75 220.89 58.25 218.94 58.25ZM218.94 55.775C219.823 55.775 220.507 55.5 220.99 54.95C221.473 54.3833 221.74 53.5583 221.79 52.475C221.807 52.3083 221.815 51.9833 221.815 51.5C221.815 51.0167 221.807 50.6917 221.79 50.525C221.74 49.4417 221.473 48.625 220.99 48.075C220.507 47.5083 219.823 47.225 218.94 47.225C218.057 47.225 217.373 47.5083 216.89 48.075C216.407 48.625 216.14 49.4417 216.09 50.525L216.065 51.5L216.09 52.475C216.14 53.5583 216.407 54.3833 216.89 54.95C217.373 55.5 218.057 55.775 218.94 55.775ZM232.56 58.25C231.027 58.25 229.818 57.75 228.935 56.75C228.052 55.7333 227.61 54.3583 227.61 52.625V45.6C227.61 45.4333 227.668 45.2917 227.785 45.175C227.902 45.0583 228.043 45 228.21 45H230.41C230.593 45 230.735 45.0583 230.835 45.175C230.952 45.275 231.01 45.4167 231.01 45.6V52.475C231.01 54.5417 231.918 55.575 233.735 55.575C234.602 55.575 235.285 55.3 235.785 54.75C236.302 54.2 236.56 53.4417 236.56 52.475V45.6C236.56 45.4333 236.618 45.2917 236.735 45.175C236.852 45.0583 236.993 45 237.16 45H239.36C239.543 45 239.685 45.0583 239.785 45.175C239.902 45.275 239.96 45.4167 239.96 45.6V57.4C239.96 57.5667 239.902 57.7083 239.785 57.825C239.685 57.9417 239.543 58 239.36 58H237.335C237.168 58 237.027 57.9417 236.91 57.825C236.793 57.7083 236.735 57.5667 236.735 57.4V56.375C235.802 57.625 234.41 58.25 232.56 58.25ZM243.612 58C243.446 58 243.304 57.9417 243.187 57.825C243.071 57.7083 243.012 57.5667 243.012 57.4V45.625C243.012 45.4583 243.071 45.3167 243.187 45.2C243.304 45.0667 243.446 45 243.612 45L245.637 45C245.821 45 245.971 45.0583 246.087 45.175C246.204 45.2917 246.262 45.4417 246.262 45.625V46.65C246.662 46.1167 247.162 45.7083 247.762 45.425C248.379 45.1417 249.079 45 249.862 45H250.887C251.071 45 251.212 45.0583 251.312 45.175C251.429 45.275 251.487 45.4167 251.487 45.6V47.4C251.487 47.5667 251.429 47.7083 251.312 47.825C251.212 47.9417 251.071 48 250.887 48H248.937C248.154 48 247.537 48.225 247.087 48.675C246.637 49.125 246.412 49.7417 246.412 50.525V57.4C246.412 57.5667 246.354 57.7083 246.237 57.825C246.121 57.9417 245.971 58 245.787 58L243.612 58Z" fill="#FEFEFE"/>
<path d="M61.1822 27.9902C60.9335 27.8348 60.7794 27.6285 60.72 27.3712C60.6606 27.114 60.7086 26.861 60.8641 26.6123L70.8266 10.669C70.982 10.4202 71.1883 10.2661 71.4456 10.2068C71.7028 10.1474 71.9558 10.1954 72.2045 10.3508L76.1056 12.7885C76.3543 12.9439 76.5084 13.1502 76.5678 13.4075C76.6498 13.6788 76.6131 13.9389 76.4576 14.1876L75.6521 15.4767C76.7291 15.1119 77.8837 15.0002 79.1162 15.1414C80.3712 15.2967 81.6093 15.7559 82.8305 16.519C84.8206 17.7626 86.0136 19.4514 86.4096 21.5855C86.8196 23.697 86.2686 25.9626 84.7566 28.3823L78.8427 37.8466C78.7014 38.0727 78.4951 38.2268 78.2237 38.3088C77.9665 38.3682 77.7135 38.3201 77.4647 38.1647L73.1906 35.4939C72.9644 35.3526 72.8104 35.1463 72.7284 34.8749C72.6831 34.5951 72.7311 34.3421 72.8724 34.1159L78.6592 24.8552C79.3233 23.7924 79.572 22.8157 79.4051 21.9253C79.2524 21.0123 78.6898 20.252 77.7174 19.6444C76.7676 19.0509 75.8376 18.8785 74.9274 19.1274C74.0314 19.3536 73.2513 19.9981 72.5871 21.061L66.8004 30.3217C66.6591 30.5479 66.4528 30.7019 66.1814 30.7839C65.9242 30.8433 65.6712 30.7953 65.4225 30.6398L61.1822 27.9902Z" fill="#F6FB0F"/>
<path d="M89.7217 46.2954C87.008 44.5996 85.3302 42.5293 84.6883 40.0843C84.0464 37.6393 84.5677 34.9935 86.2521 32.1469L86.994 30.9596C88.7519 28.3476 90.8774 26.7828 93.3705 26.2653C95.9003 25.7393 98.4882 26.303 101.134 27.9563C103.056 29.1575 104.426 30.5636 105.243 32.1747C106.097 33.7774 106.428 35.462 106.236 37.2287C106.066 39.0095 105.43 40.7819 104.328 42.5459L103.819 43.36C103.678 43.5861 103.472 43.7402 103.2 43.8222C102.943 43.8816 102.69 43.8336 102.441 43.6781L91.5864 36.8951L91.4381 37.1326C90.8191 38.2237 90.5422 39.2456 90.6073 40.1982C90.6724 41.1508 91.1573 41.9097 92.0618 42.4749C92.6272 42.8282 93.1615 43.0048 93.6646 43.0048C94.1819 42.9821 94.6935 42.893 95.1995 42.7375C95.5584 42.6159 95.8086 42.5679 95.9499 42.5933C96.128 42.6102 96.3527 42.7035 96.6241 42.8731L100.83 45.5015C101.034 45.6286 101.161 45.8025 101.212 46.0229C101.3 46.2349 101.28 46.4427 101.153 46.6462C100.785 47.2342 100.022 47.7007 98.8633 48.0456C97.727 48.4047 96.349 48.4713 94.7293 48.2453C93.1096 48.0193 91.4404 47.3693 89.7217 46.2954ZM99.4177 37.1191L99.4601 37.0513C100.153 35.9432 100.437 34.91 100.312 33.9518C100.224 32.9851 99.7282 32.2191 98.8236 31.6538C97.9416 31.1027 97.0357 30.9926 96.1057 31.3234C95.2126 31.6457 94.4197 32.3609 93.7273 33.469L93.6849 33.5369L99.4177 37.1191Z" fill="#F6FB0F"/>
<path d="M105.983 55.9849C105.666 55.787 105.46 55.5638 105.364 55.315C105.305 55.0578 105.314 54.7652 105.394 54.4373L110.323 35.6792L110.467 35.2975C110.594 35.094 110.779 34.9739 111.022 34.9371C111.28 34.8777 111.51 34.9116 111.714 35.0388L115.207 37.2221C115.479 37.3916 115.656 37.6121 115.738 37.8834C115.834 38.1322 115.848 38.3611 115.78 38.5703L112.567 50.0525L121.661 42.2925C121.819 42.1398 122.039 42.0409 122.318 41.9956C122.598 41.9504 122.885 42.0196 123.179 42.2033L125.418 43.6023C125.712 43.786 125.9 44.0135 125.982 44.2849C126.064 44.5562 126.071 44.7965 126.003 45.0057L123.015 56.5811L131.927 48.66C132.085 48.5073 132.297 48.4197 132.563 48.397C132.843 48.3518 133.118 48.4139 133.39 48.5835L136.884 50.7668C137.087 50.894 137.219 51.0862 137.278 51.3434C137.351 51.578 137.325 51.7971 137.197 52.0006L136.918 52.2974L122.219 64.9509C121.959 65.1658 121.689 65.2958 121.409 65.3411C121.166 65.3779 120.886 65.2973 120.569 65.0995L117.516 63.1918C116.928 62.8244 116.732 62.3085 116.927 61.6442L119.614 50.3995L110.685 57.744C110.174 58.2105 109.624 58.26 109.036 57.8926L105.983 55.9849Z" fill="#F6FB0F"/>
<path d="M135.732 75.0455C133.9 73.9009 132.524 72.6799 131.606 71.3825C130.709 70.0993 130.194 68.9122 130.058 67.8211C129.922 66.73 130.031 65.9018 130.384 65.3364C130.525 65.1103 130.717 64.9788 130.961 64.942C131.24 64.8968 131.482 64.9377 131.686 65.0649L135.553 67.4814C135.688 67.5661 135.777 67.7004 135.82 67.8841C135.978 68.2346 136.09 68.5088 136.155 68.7067C136.426 69.3794 136.686 69.9193 136.935 70.3263C137.221 70.7248 137.635 71.0936 138.178 71.4328C138.833 71.8426 139.443 72.0503 140.005 72.0559C140.604 72.053 141.052 71.8141 141.349 71.3392C141.589 70.9548 141.667 70.5788 141.582 70.2113C141.52 69.858 141.247 69.3888 140.764 68.8037C140.295 68.1961 139.516 67.3792 138.427 66.3533C136.791 64.7959 135.732 63.2696 135.251 61.7744C134.807 60.2706 135.045 58.7838 135.963 57.3138C136.542 56.3866 137.388 55.6884 138.498 55.219C139.609 54.7497 140.904 54.6153 142.382 54.8159C143.883 55.0305 145.436 55.6396 147.042 56.6429C148.648 57.6462 149.894 58.7711 150.782 60.0175C151.67 61.264 152.193 62.4399 152.351 63.5451C152.546 64.6418 152.46 65.4841 152.093 66.0721C151.966 66.2757 151.773 66.4071 151.516 66.4665C151.282 66.54 151.063 66.5132 150.859 66.386L147.331 64.1815C147.15 64.0685 147.016 63.906 146.928 63.694C146.733 63.352 146.579 63.0199 146.466 62.6976C146.265 62.1634 146.045 61.7112 145.804 61.3409C145.564 60.9706 145.195 60.63 144.698 60.3192C144.11 59.9517 143.55 59.7907 143.019 59.836C142.51 59.8954 142.121 60.1399 141.853 60.5696C141.641 60.9088 141.555 61.248 141.594 61.5872C141.656 61.9405 141.922 62.421 142.391 63.0287C142.897 63.6279 143.69 64.4221 144.77 65.4114C146.724 67.1665 147.894 68.8412 148.281 70.4354C148.691 72.0438 148.487 73.5038 147.667 74.8154C146.621 76.4889 145.034 77.3681 142.906 77.4531C140.791 77.5155 138.4 76.713 135.732 75.0455Z" fill="#F6FB0F"/>
<path d="M147.943 82.2043C147.717 82.063 147.563 81.8566 147.481 81.5853C147.435 81.3055 147.483 81.0525 147.625 80.8263L161.615 58.4379C161.77 58.1891 161.976 58.035 162.234 57.9756C162.513 57.9304 162.766 57.9784 162.993 58.1197L166.995 60.6209C167.244 60.7764 167.398 60.9827 167.458 61.2399C167.517 61.4972 167.469 61.7502 167.313 61.9989L153.324 84.3874C153.168 84.6361 152.962 84.7902 152.705 84.8496C152.447 84.909 152.194 84.861 151.946 84.7055L147.943 82.2043Z" fill="#F6FB0F"/>
<path d="M164.391 92.9539C161.677 91.2582 159.999 89.1878 159.358 86.7428C158.716 84.2978 159.237 81.652 160.921 78.8054L161.663 77.6181C163.421 75.0061 165.547 73.4414 168.04 72.9239C170.57 72.3979 173.157 72.9616 175.803 74.6149C177.726 75.8161 179.095 77.2222 179.912 78.8333C180.766 80.4359 181.097 82.1206 180.905 83.8873C180.736 85.6681 180.1 87.4405 178.997 89.2044L178.489 90.0185C178.347 90.2447 178.141 90.3988 177.87 90.4808C177.613 90.5401 177.36 90.4921 177.111 90.3367L166.256 83.5537L166.107 83.7912C165.488 84.8823 165.212 85.9042 165.277 86.8568C165.342 87.8093 165.827 88.5682 166.731 89.1335C167.297 89.4868 167.831 89.6634 168.334 89.6633C168.851 89.6407 169.363 89.5516 169.869 89.3961C170.228 89.2745 170.478 89.2264 170.619 89.2518C170.797 89.2688 171.022 89.362 171.293 89.5316L175.5 92.16C175.703 92.2872 175.83 92.461 175.881 92.6815C175.969 92.8935 175.949 93.1013 175.822 93.3048C175.455 93.8928 174.692 94.3592 173.533 94.7042C172.396 95.0633 171.018 95.1299 169.399 94.9039C167.779 94.6779 166.11 94.0279 164.391 92.9539ZM174.087 83.7777L174.129 83.7098C174.822 82.6017 175.106 81.5686 174.981 80.6103C174.894 79.6436 174.398 78.8776 173.493 78.3124C172.611 77.7613 171.705 77.6511 170.775 77.9819C169.882 78.3043 169.089 79.0195 168.397 80.1276L168.354 80.1954L174.087 83.7777Z" fill="#F6FB0F"/>
<path d="M185.221 105.498C180.539 102.573 179.591 98.8828 182.375 94.4277L186.444 87.9147L183.798 86.2614C183.55 86.1059 183.384 85.8925 183.302 85.6212C183.243 85.3639 183.291 85.1109 183.446 84.8622L185.163 82.1145C185.319 81.8657 185.525 81.7117 185.782 81.6523C186.062 81.607 186.326 81.6621 186.575 81.8176L189.221 83.4709L192.719 77.8738C192.874 77.625 193.08 77.471 193.338 77.4116C193.617 77.3663 193.87 77.4144 194.097 77.5557L198.032 80.0145C198.28 80.1699 198.434 80.3763 198.494 80.6335C198.553 80.8907 198.505 81.1437 198.35 81.3925L194.852 86.9896L199.092 89.6392C199.341 89.7946 199.495 90.001 199.555 90.2582C199.637 90.5295 199.6 90.7896 199.444 91.0384L197.728 93.786C197.572 94.0348 197.354 94.1818 197.075 94.227C196.817 94.2864 196.564 94.2384 196.316 94.083L192.075 91.4334L188.302 97.4715C187.257 99.1449 187.378 100.384 188.667 101.19L191.279 102.822C191.528 102.977 191.682 103.184 191.742 103.441C191.801 103.698 191.753 103.951 191.597 104.2L189.753 107.151C189.612 107.377 189.406 107.531 189.134 107.613C188.877 107.673 188.624 107.625 188.375 107.469L185.221 105.498Z" fill="#F6FB0F"/>
<path d="M200.716 115.181C196.035 112.256 195.086 108.565 197.87 104.11L201.94 97.5973L199.294 95.944C199.045 95.7885 198.88 95.5751 198.798 95.3038C198.738 95.0466 198.786 94.7936 198.942 94.5448L200.659 91.7971C200.814 91.5484 201.021 91.3943 201.278 91.3349C201.558 91.2897 201.822 91.3447 202.071 91.5002L204.717 93.1535L208.214 87.5564C208.369 87.3077 208.576 87.1536 208.833 87.0942C209.113 87.049 209.366 87.097 209.592 87.2383L213.527 89.6971C213.776 89.8526 213.93 90.0589 213.989 90.3161C214.049 90.5733 214.001 90.8263 213.845 91.0751L210.348 96.6722L214.588 99.3218C214.837 99.4772 214.991 99.6836 215.05 99.9408C215.132 100.212 215.095 100.472 214.94 100.721L213.223 103.469C213.068 103.717 212.85 103.864 212.57 103.91C212.313 103.969 212.06 103.921 211.811 103.766L207.571 101.116L203.798 107.154C202.752 108.828 202.874 110.067 204.163 110.873L206.775 112.505C207.024 112.66 207.178 112.866 207.237 113.124C207.296 113.381 207.248 113.634 207.093 113.883L205.249 116.834C205.107 117.06 204.901 117.214 204.63 117.296C204.373 117.355 204.12 117.307 203.871 117.152L200.716 115.181Z" fill="#F6FB0F"/>
<path d="M215.118 124.651C212.404 122.956 210.726 120.885 210.084 118.44C209.442 115.995 209.963 113.349 211.648 110.503L212.39 109.316C214.148 106.704 216.273 105.139 218.766 104.621C221.296 104.095 223.884 104.659 226.53 106.312C228.452 107.514 229.822 108.92 230.639 110.531C231.493 112.133 231.824 113.818 231.631 115.585C231.462 117.366 230.826 119.138 229.724 120.902L229.215 121.716C229.074 121.942 228.868 122.096 228.596 122.178C228.339 122.238 228.086 122.19 227.837 122.034L216.982 115.251L216.834 115.489C216.215 116.58 215.938 117.602 216.003 118.554C216.068 119.507 216.553 120.266 217.458 120.831C218.023 121.184 218.557 121.361 219.06 121.361C219.578 121.338 220.089 121.249 220.595 121.094C220.954 120.972 221.204 120.924 221.346 120.949C221.524 120.966 221.749 121.059 222.02 121.229L226.226 123.857C226.43 123.985 226.557 124.158 226.608 124.379C226.696 124.591 226.676 124.799 226.549 125.002C226.181 125.59 225.418 126.057 224.259 126.402C223.123 126.761 221.745 126.827 220.125 126.601C218.505 126.375 216.836 125.725 215.118 124.651ZM224.814 115.475L224.856 115.407C225.548 114.299 225.832 113.266 225.708 112.308C225.62 111.341 225.124 110.575 224.219 110.01C223.337 109.459 222.432 109.349 221.502 109.679C220.608 110.002 219.816 110.717 219.123 111.825L219.081 111.893L224.814 115.475Z" fill="#F6FB0F"/>
<path d="M227.838 132.128C227.589 131.973 227.435 131.767 227.376 131.509C227.317 131.252 227.365 130.999 227.52 130.751L237.483 114.807C237.638 114.558 237.844 114.404 238.102 114.345C238.359 114.286 238.612 114.334 238.861 114.489L242.762 116.927C243.01 117.082 243.157 117.3 243.203 117.58C243.285 117.851 243.255 118.1 243.114 118.326L242.266 119.683C244.428 118.99 246.561 119.301 248.664 120.615L250.157 121.548C250.405 121.703 250.559 121.909 250.619 122.167C250.678 122.424 250.63 122.677 250.475 122.926L248.291 126.42C248.15 126.646 247.944 126.8 247.672 126.882C247.415 126.941 247.162 126.893 246.913 126.738L243.623 124.682C242.696 124.102 241.81 123.91 240.964 124.105C240.156 124.292 239.462 124.849 238.883 125.776L233.456 134.46C233.301 134.709 233.083 134.856 232.804 134.901C232.546 134.96 232.293 134.912 232.045 134.757L227.838 132.128Z" fill="#F6FB0F"/>
</svg>
