<svg width="34" height="34" fill="none" xmlns="http://www.w3.org/2000/svg"><path fill-rule="evenodd" clip-rule="evenodd" d="M16.52 33.041c9.125 0 16.521-7.396 16.521-16.52C33.041 7.397 25.645 0 16.521 0 7.397 0 0 7.397 0 16.52c0 9.125 7.397 16.521 16.52 16.521z" fill="#F6FB0F"/><path fill-rule="evenodd" clip-rule="evenodd" d="M10.739 14.869a2.478 2.478 0 1 0 0-4.957 2.478 2.478 0 0 0 0 4.957zm-2.805 4.956h17.173a1.652 1.652 0 0 1 1.43 2.48 11.559 11.559 0 0 1-10.016 5.78 11.559 11.559 0 0 1-10.017-5.78 1.652 1.652 0 0 1 1.43-2.48zm16.847-7.434a2.478 2.478 0 1 1-4.956 0 2.478 2.478 0 0 1 4.956 0z" fill="#323300"/></svg>