<svg width="100" height="100" fill="none" xmlns="http://www.w3.org/2000/svg"><path d="M50 0C22.387 0 0 22.387 0 50c0 27.612 22.387 50 50 50 27.612 0 50-22.388 50-50 0-27.613-22.388-50-50-50zm25.275 40.188c.762 16.833-11.792 35.6-34.017 35.6a33.86 33.86 0 0 1-18.341-5.38 24.077 24.077 0 0 0 17.716-4.954c-5.233-.096-9.654-3.558-11.183-8.312 1.88.358 3.73.254 5.408-.205-5.754-1.158-9.729-6.341-9.6-11.887a11.94 11.94 0 0 0 5.421 1.496c-5.329-3.563-6.837-10.6-3.704-15.98 5.9 7.242 14.72 12.005 24.667 12.505-1.746-7.483 3.933-14.696 11.662-14.696 3.438 0 6.55 1.454 8.733 3.78a23.874 23.874 0 0 0 7.6-2.905 12.017 12.017 0 0 1-5.262 6.62 23.87 23.87 0 0 0 6.87-1.887 24.02 24.02 0 0 1-5.97 6.205z" fill="#161616"/></svg>