<svg width="486" height="528" viewBox="0 0 486 528" fill="none" xmlns="http://www.w3.org/2000/svg">
<path d="M473.234 23.3147V318.379H262.235L360.501 527.539L20.2074 318.379V23.3147H473.234Z" fill="#F72F97"/>
<path d="M453.069 1.52673V296.591H242.071L340.337 505.751L0.0429688 296.591V1.52673H453.069Z" fill="#161616"/>
<path d="M53.1501 135.596C51.3261 135.596 49.8861 135.116 48.8301 134.156C47.7741 133.196 47.0541 132.092 46.6701 130.844L19.5981 38.9718L19.4541 37.9638C19.4541 37.0998 19.7421 36.3798 20.3181 35.8038C20.9901 35.1318 21.7581 34.7958 22.6221 34.7958H49.4061C51.2301 34.7958 52.6701 35.2758 53.7261 36.2358C54.7821 37.1958 55.5021 38.2998 55.8861 39.5478L69.5661 93.1158L83.2461 39.5478C83.6301 38.2998 84.3501 37.1958 85.4061 36.2358C86.4621 35.2758 87.9021 34.7958 89.7261 34.7958H116.51C117.374 34.7958 118.094 35.1318 118.67 35.8038C119.342 36.3798 119.678 37.0998 119.678 37.9638L119.534 38.9718L92.4621 130.844C92.0781 132.092 91.3581 133.196 90.3021 134.156C89.2461 135.116 87.8061 135.596 85.9821 135.596H53.1501ZM159.987 137.036C133.587 137.036 119.667 126.332 118.227 104.924C118.131 103.484 118.083 101.228 118.083 98.1558C118.083 95.0838 118.131 92.8278 118.227 91.3878C118.899 80.9238 122.883 72.9558 130.179 67.4838C137.475 62.0118 147.411 59.2758 159.987 59.2758C172.563 59.2758 182.499 62.0118 189.795 67.4838C197.091 72.9558 201.075 80.9238 201.747 91.3878C201.939 94.2678 202.035 96.5238 202.035 98.1558C202.035 99.7878 201.939 102.044 201.747 104.924C200.307 126.332 186.387 137.036 159.987 137.036ZM159.987 113.996C162.579 113.996 164.259 113.324 165.027 111.98C165.795 110.54 166.275 107.948 166.467 104.204C166.563 103.244 166.611 101.228 166.611 98.1558C166.611 95.0838 166.563 93.0678 166.467 92.1078C166.179 88.4598 165.651 85.9158 164.883 84.4758C164.115 83.0358 162.483 82.3158 159.987 82.3158C157.491 82.3158 155.859 83.0358 155.091 84.4758C154.323 85.9158 153.795 88.4598 153.507 92.1078L153.363 98.1558L153.507 104.204C153.699 107.948 154.179 110.54 154.947 111.98C155.715 113.324 157.395 113.996 159.987 113.996ZM217.242 52.7958C216.186 52.7958 215.274 52.4118 214.506 51.6438C213.738 50.8758 213.354 49.9638 213.354 48.9078V31.4838C213.354 30.4278 213.738 29.5158 214.506 28.7478C215.274 27.9798 216.186 27.5958 217.242 27.5958H241.578C242.634 27.5958 243.546 27.9798 244.314 28.7478C245.082 29.5158 245.466 30.4278 245.466 31.4838V48.9078C245.466 49.9638 245.082 50.8758 244.314 51.6438C243.546 52.4118 242.634 52.7958 241.578 52.7958H217.242ZM216.522 135.596C215.466 135.596 214.554 135.212 213.786 134.444C213.018 133.676 212.634 132.764 212.634 131.708V64.6038C212.634 63.5478 213.018 62.6358 213.786 61.8678C214.554 61.0998 215.466 60.7158 216.522 60.7158H242.298C243.354 60.7158 244.266 61.0998 245.034 61.8678C245.802 62.6358 246.186 63.5478 246.186 64.6038V131.708C246.186 132.764 245.802 133.676 245.034 134.444C244.266 135.212 243.354 135.596 242.298 135.596H216.522ZM297.34 137.036C289.948 137.036 283.228 135.788 277.18 133.292C271.228 130.7 266.476 126.908 262.924 121.916C259.372 116.924 257.404 110.972 257.02 104.06L256.876 98.2998L257.02 92.3958C257.308 85.4838 259.228 79.5318 262.78 74.5398C266.428 69.5478 271.228 65.7558 277.18 63.1638C283.228 60.5718 289.948 59.2758 297.34 59.2758C306.748 59.2758 314.62 61.0038 320.956 64.4598C327.292 67.8198 331.948 71.7558 334.924 76.2678C337.996 80.7798 339.532 84.5238 339.532 87.4998C339.532 88.4598 339.148 89.3238 338.38 90.0918C337.612 90.7638 336.7 91.0998 335.644 91.0998H307.564C305.74 91.0998 304.348 90.1398 303.388 88.2198C302.62 86.6838 301.852 85.5798 301.084 84.9078C300.412 84.2358 299.404 83.8998 298.06 83.8998C295.948 83.8998 294.46 84.6678 293.596 86.2038C292.828 87.7398 292.396 90.0438 292.3 93.1158L292.156 98.7318L292.3 103.34C292.492 106.604 292.972 108.956 293.74 110.396C294.508 111.74 295.948 112.412 298.06 112.412C299.596 112.412 300.7 112.124 301.372 111.548C302.044 110.876 302.716 109.724 303.388 108.092C304.156 106.172 305.548 105.212 307.564 105.212H335.644C336.7 105.212 337.612 105.596 338.38 106.364C339.148 107.036 339.532 107.852 339.532 108.812C339.532 111.5 338.092 115.1 335.212 119.612C332.332 124.124 327.724 128.156 321.388 131.708C315.148 135.26 307.132 137.036 297.34 137.036ZM387.495 137.036C374.439 137.036 364.311 133.868 357.111 127.532C349.911 121.1 346.311 111.356 346.311 98.2998V97.2918C346.503 85.0998 350.247 75.7398 357.543 69.2118C364.935 62.5878 374.871 59.2758 387.351 59.2758C396.375 59.2758 403.959 61.0518 410.103 64.6038C416.343 68.0598 420.951 72.7638 423.927 78.7158C426.903 84.5718 428.391 91.1478 428.391 98.4438V102.764C428.391 103.82 428.007 104.732 427.239 105.5C426.471 106.268 425.559 106.652 424.503 106.652H381.591V107.372C381.591 110.348 382.023 112.556 382.887 113.996C383.751 115.436 385.191 116.156 387.207 116.156C387.975 116.156 388.599 116.012 389.079 115.724C389.559 115.34 390.327 114.62 391.383 113.564C392.247 112.7 392.967 112.172 393.543 111.98C394.119 111.692 394.983 111.548 396.135 111.548H423.351C424.215 111.548 424.935 111.836 425.511 112.412C426.183 112.892 426.519 113.564 426.519 114.428C426.519 117.116 425.031 120.284 422.055 123.932C419.079 127.484 414.615 130.556 408.663 133.148C402.807 135.74 395.751 137.036 387.495 137.036ZM393.111 88.6518V88.5078C393.111 82.4598 391.191 79.4358 387.351 79.4358C383.511 79.4358 381.591 82.4598 381.591 88.5078V88.6518H393.111Z" fill="#F72F97"/>
<path d="M29.6095 259.092C27.9775 259.092 26.7295 258.66 25.8655 257.796C25.0975 256.836 24.7615 255.684 24.8575 254.34L27.8815 161.604C27.9775 160.74 28.3615 159.972 29.0335 159.3C29.7055 158.628 30.5215 158.292 31.4815 158.292H48.9055C51.5935 158.292 52.8415 159.444 52.6495 161.748L50.3455 217.044L67.4815 184.5C69.0175 181.908 70.8895 180.612 73.0975 180.612H83.3215C85.7215 180.612 87.0655 181.908 87.3535 184.5L90.9535 217.476L112.265 161.46C112.649 160.308 113.225 159.492 113.993 159.012C114.761 158.532 115.865 158.292 117.305 158.292H135.737C136.505 158.292 137.081 158.532 137.465 159.012C137.945 159.396 138.185 159.924 138.185 160.596C138.185 160.884 138.089 161.316 137.897 161.892L103.769 254.34C103.193 255.684 102.329 256.836 101.177 257.796C100.025 258.66 98.6335 259.092 97.0015 259.092H83.0335C80.4415 259.092 78.9055 257.844 78.4255 255.348L71.3695 214.164L49.4815 255.348C48.1375 257.844 46.1215 259.092 43.4335 259.092H29.6095ZM158.086 260.532C147.814 260.532 139.798 258.228 134.038 253.62C128.278 248.916 125.398 242.436 125.398 234.18C125.398 232.164 125.542 230.148 125.83 228.132C126.31 223.812 127.222 219.492 128.566 215.172C131.35 204.804 136.342 196.836 143.542 191.268C150.838 185.604 160.39 182.772 172.198 182.772C182.374 182.772 190.39 185.124 196.246 189.828C202.198 194.532 205.174 201.06 205.174 209.412C205.174 211.236 205.03 213.156 204.742 215.172C203.494 221.7 202.582 226.02 202.006 228.132C199.126 238.596 194.134 246.612 187.03 252.18C180.022 257.748 170.374 260.532 158.086 260.532ZM160.246 242.964C168.598 242.964 174.118 237.78 176.806 227.412C178.054 222.612 178.87 218.772 179.254 215.892C179.638 213.204 179.83 211.332 179.83 210.276C179.83 207.012 179.014 204.564 177.382 202.932C175.846 201.204 173.398 200.34 170.038 200.34C161.878 200.34 156.454 205.524 153.766 215.892C152.806 219.06 151.99 222.9 151.318 227.412C150.934 229.332 150.742 231.252 150.742 233.172C150.742 236.436 151.462 238.884 152.902 240.516C154.438 242.148 156.886 242.964 160.246 242.964ZM211.996 259.092C210.94 259.092 210.124 258.756 209.548 258.084C208.972 257.412 208.78 256.548 208.972 255.492L223.372 187.812C223.564 186.756 224.092 185.892 224.956 185.22C225.82 184.548 226.78 184.212 227.836 184.212H244.396C245.452 184.212 246.268 184.548 246.844 185.22C247.228 185.796 247.42 186.372 247.42 186.948C247.42 187.236 247.372 187.524 247.276 187.812L246.124 193.572C251.116 187.332 258.316 184.212 267.724 184.212H275.788C276.748 184.212 277.516 184.548 278.092 185.22C278.476 185.7 278.668 186.276 278.668 186.948C278.668 187.236 278.62 187.524 278.524 187.812L275.5 202.644C275.308 203.7 274.78 204.564 273.916 205.236C273.052 205.908 272.092 206.244 271.036 206.244H257.212C253.276 206.244 249.964 207.348 247.276 209.556C244.684 211.668 242.956 214.692 242.092 218.628L234.316 255.492C234.124 256.548 233.596 257.412 232.732 258.084C231.868 258.756 230.908 259.092 229.852 259.092H211.996ZM277.667 259.092C276.611 259.092 275.795 258.756 275.219 258.084C274.643 257.412 274.451 256.548 274.643 255.492L294.947 160.452C295.139 159.396 295.619 158.532 296.387 157.86C297.251 157.188 298.211 156.852 299.267 156.852H315.827C316.883 156.852 317.699 157.188 318.275 157.86C318.755 158.34 318.995 158.964 318.995 159.732C318.995 159.924 318.947 160.164 318.851 160.452L308.627 208.404L332.675 186.66C332.963 186.468 333.395 186.132 333.971 185.652C334.547 185.172 335.171 184.836 335.843 184.644C336.515 184.356 337.283 184.212 338.147 184.212H358.739C359.603 184.212 360.275 184.452 360.755 184.932C361.235 185.316 361.475 185.844 361.475 186.516C361.475 187.668 360.851 188.772 359.603 189.828L327.779 219.348L348.947 253.908C349.331 254.388 349.523 255.012 349.523 255.78C349.523 256.644 349.187 257.412 348.515 258.084C347.843 258.756 346.931 259.092 345.779 259.092H326.915C324.995 259.092 323.555 258.324 322.595 256.788L304.451 227.412L298.547 255.492C298.355 256.548 297.827 257.412 296.963 258.084C296.195 258.756 295.283 259.092 294.227 259.092H277.667ZM386.804 260.532C379.604 260.532 373.7 259.572 369.092 257.652C364.484 255.732 361.124 253.38 359.012 250.596C356.996 247.812 355.988 245.172 355.988 242.676L356.132 241.38C356.228 240.324 356.708 239.46 357.572 238.788C358.436 238.116 359.3 237.78 360.164 237.78H376.58C377.156 237.78 377.636 238.02 378.02 238.5C378.116 238.596 378.932 239.268 380.468 240.516C382.004 241.86 383.492 242.916 384.932 243.684C386.468 244.452 388.436 244.836 390.836 244.836C393.908 244.836 396.5 244.164 398.612 242.82C400.724 241.38 401.78 239.412 401.78 236.916C401.78 235.188 400.628 233.748 398.324 232.596C396.116 231.444 391.748 230.196 385.22 228.852C371.588 225.876 364.772 219.828 364.772 210.708C364.772 209.844 364.964 208.26 365.348 205.956C366.212 202.02 368.276 198.276 371.54 194.724C374.804 191.172 379.124 188.292 384.5 186.084C389.876 183.876 395.972 182.772 402.788 182.772C409.124 182.772 414.5 183.732 418.916 185.652C423.428 187.476 426.788 189.78 428.996 192.564C431.204 195.348 432.308 197.988 432.308 200.484L432.164 201.636C432.068 202.596 431.588 203.46 430.724 204.228C429.956 204.9 429.14 205.236 428.276 205.236H413.3C412.532 205.236 411.908 204.996 411.428 204.516C410.66 204.132 409.652 203.412 408.404 202.356C407.06 201.108 405.716 200.148 404.372 199.476C403.124 198.804 401.444 198.468 399.332 198.468C396.356 198.468 394.004 199.188 392.276 200.628C390.548 202.068 389.684 203.94 389.684 206.244C389.684 207.876 390.788 209.268 392.996 210.42C395.204 211.476 399.524 212.628 405.956 213.876C413.828 215.316 419.492 217.716 422.948 221.076C426.5 224.34 428.276 228.276 428.276 232.884C428.276 234.228 428.132 235.62 427.844 237.06C426.308 244.164 421.892 249.876 414.596 254.196C407.396 258.42 398.132 260.532 386.804 260.532Z" fill="#FEFEFE"/>
</svg>
